<mxfile host="app.diagrams.net" modified="2022-02-12T10:58:25.124Z" agent="5.0 (Windows NT 10.0; Win64; x64) AppleWebKit/537.36 (KHTML, like Gecko) Chrome/98.0.4758.82 Safari/537.36" etag="EbnSCqDw2sh3LzJZCGnb" version="16.5.6" type="github">
  <diagram id="C5RBs43oDa-KdzZeNtuy" name="Page-1">
    <mxGraphModel dx="1038" dy="489" grid="1" gridSize="10" guides="1" tooltips="1" connect="1" arrows="1" fold="1" page="1" pageScale="1" pageWidth="827" pageHeight="1169" math="0" shadow="0">
      <root>
        <mxCell id="WIyWlLk6GJQsqaUBKTNV-0" />
        <mxCell id="WIyWlLk6GJQsqaUBKTNV-1" parent="WIyWlLk6GJQsqaUBKTNV-0" />
        <mxCell id="DFkXCgHexfb-b-sQ5JPd-5" style="edgeStyle=orthogonalEdgeStyle;rounded=0;orthogonalLoop=1;jettySize=auto;html=1;fontSize=24;" edge="1" parent="WIyWlLk6GJQsqaUBKTNV-1" source="DFkXCgHexfb-b-sQ5JPd-4">
          <mxGeometry relative="1" as="geometry">
            <mxPoint x="380" y="110" as="targetPoint" />
          </mxGeometry>
        </mxCell>
        <mxCell id="DFkXCgHexfb-b-sQ5JPd-4" value="&lt;font size=&quot;3&quot;&gt;START&lt;/font&gt;" style="ellipse;whiteSpace=wrap;html=1;" vertex="1" parent="WIyWlLk6GJQsqaUBKTNV-1">
          <mxGeometry x="320" y="10" width="120" height="60" as="geometry" />
        </mxCell>
        <mxCell id="DFkXCgHexfb-b-sQ5JPd-16" style="edgeStyle=orthogonalEdgeStyle;rounded=0;orthogonalLoop=1;jettySize=auto;html=1;fontSize=18;" edge="1" parent="WIyWlLk6GJQsqaUBKTNV-1" source="DFkXCgHexfb-b-sQ5JPd-6">
          <mxGeometry relative="1" as="geometry">
            <mxPoint x="385" y="200" as="targetPoint" />
          </mxGeometry>
        </mxCell>
        <mxCell id="DFkXCgHexfb-b-sQ5JPd-6" value="&lt;font style=&quot;font-size: 18px&quot;&gt;kindly fill the form with the required details&lt;/font&gt;" style="rounded=1;whiteSpace=wrap;html=1;fontSize=24;" vertex="1" parent="WIyWlLk6GJQsqaUBKTNV-1">
          <mxGeometry x="190" y="110" width="390" height="50" as="geometry" />
        </mxCell>
        <mxCell id="DFkXCgHexfb-b-sQ5JPd-19" style="edgeStyle=orthogonalEdgeStyle;rounded=0;orthogonalLoop=1;jettySize=auto;html=1;exitX=0.5;exitY=1;exitDx=0;exitDy=0;fontSize=18;" edge="1" parent="WIyWlLk6GJQsqaUBKTNV-1" source="DFkXCgHexfb-b-sQ5JPd-8">
          <mxGeometry relative="1" as="geometry">
            <mxPoint x="385" y="280" as="targetPoint" />
          </mxGeometry>
        </mxCell>
        <mxCell id="DFkXCgHexfb-b-sQ5JPd-8" value="enter your first name" style="rounded=1;whiteSpace=wrap;html=1;fontSize=18;" vertex="1" parent="WIyWlLk6GJQsqaUBKTNV-1">
          <mxGeometry x="275" y="200" width="220" height="40" as="geometry" />
        </mxCell>
        <mxCell id="DFkXCgHexfb-b-sQ5JPd-20" value="enter your first name" style="rounded=1;whiteSpace=wrap;html=1;fontSize=18;" vertex="1" parent="WIyWlLk6GJQsqaUBKTNV-1">
          <mxGeometry x="250" y="200" width="280" height="40" as="geometry" />
        </mxCell>
        <mxCell id="DFkXCgHexfb-b-sQ5JPd-22" style="edgeStyle=orthogonalEdgeStyle;rounded=0;orthogonalLoop=1;jettySize=auto;html=1;fontSize=18;" edge="1" parent="WIyWlLk6GJQsqaUBKTNV-1" source="DFkXCgHexfb-b-sQ5JPd-21">
          <mxGeometry relative="1" as="geometry">
            <mxPoint x="385" y="360" as="targetPoint" />
          </mxGeometry>
        </mxCell>
        <mxCell id="DFkXCgHexfb-b-sQ5JPd-21" value="enter your second name" style="rounded=1;whiteSpace=wrap;html=1;fontSize=18;" vertex="1" parent="WIyWlLk6GJQsqaUBKTNV-1">
          <mxGeometry x="265" y="280" width="240" height="40" as="geometry" />
        </mxCell>
        <mxCell id="DFkXCgHexfb-b-sQ5JPd-24" style="edgeStyle=orthogonalEdgeStyle;rounded=0;orthogonalLoop=1;jettySize=auto;html=1;fontSize=18;" edge="1" parent="WIyWlLk6GJQsqaUBKTNV-1" source="DFkXCgHexfb-b-sQ5JPd-23" target="DFkXCgHexfb-b-sQ5JPd-25">
          <mxGeometry relative="1" as="geometry">
            <mxPoint x="385" y="440" as="targetPoint" />
          </mxGeometry>
        </mxCell>
        <mxCell id="DFkXCgHexfb-b-sQ5JPd-23" value="enter your adhar number" style="rounded=1;whiteSpace=wrap;html=1;fontSize=18;" vertex="1" parent="WIyWlLk6GJQsqaUBKTNV-1">
          <mxGeometry x="265" y="360" width="240" height="40" as="geometry" />
        </mxCell>
        <mxCell id="DFkXCgHexfb-b-sQ5JPd-26" style="edgeStyle=orthogonalEdgeStyle;rounded=0;orthogonalLoop=1;jettySize=auto;html=1;fontSize=18;" edge="1" parent="WIyWlLk6GJQsqaUBKTNV-1" source="DFkXCgHexfb-b-sQ5JPd-25">
          <mxGeometry relative="1" as="geometry">
            <mxPoint x="385" y="510" as="targetPoint" />
          </mxGeometry>
        </mxCell>
        <mxCell id="DFkXCgHexfb-b-sQ5JPd-27" style="edgeStyle=orthogonalEdgeStyle;rounded=0;orthogonalLoop=1;jettySize=auto;html=1;fontSize=18;" edge="1" parent="WIyWlLk6GJQsqaUBKTNV-1" source="DFkXCgHexfb-b-sQ5JPd-25">
          <mxGeometry relative="1" as="geometry">
            <mxPoint x="385" y="510" as="targetPoint" />
          </mxGeometry>
        </mxCell>
        <mxCell id="DFkXCgHexfb-b-sQ5JPd-25" value="enter your age" style="rounded=1;whiteSpace=wrap;html=1;fontSize=18;" vertex="1" parent="WIyWlLk6GJQsqaUBKTNV-1">
          <mxGeometry x="310" y="440" width="150" height="40" as="geometry" />
        </mxCell>
        <mxCell id="DFkXCgHexfb-b-sQ5JPd-31" style="edgeStyle=orthogonalEdgeStyle;rounded=0;orthogonalLoop=1;jettySize=auto;html=1;fontSize=18;" edge="1" parent="WIyWlLk6GJQsqaUBKTNV-1" source="DFkXCgHexfb-b-sQ5JPd-28" target="DFkXCgHexfb-b-sQ5JPd-32">
          <mxGeometry relative="1" as="geometry">
            <mxPoint x="385" y="590" as="targetPoint" />
          </mxGeometry>
        </mxCell>
        <mxCell id="DFkXCgHexfb-b-sQ5JPd-28" value="&lt;span&gt;enter your gender&lt;/span&gt;" style="rounded=1;whiteSpace=wrap;html=1;fontSize=18;" vertex="1" parent="WIyWlLk6GJQsqaUBKTNV-1">
          <mxGeometry x="305" y="510" width="160" height="40" as="geometry" />
        </mxCell>
        <mxCell id="DFkXCgHexfb-b-sQ5JPd-33" style="edgeStyle=orthogonalEdgeStyle;rounded=0;orthogonalLoop=1;jettySize=auto;html=1;fontSize=18;" edge="1" parent="WIyWlLk6GJQsqaUBKTNV-1" source="DFkXCgHexfb-b-sQ5JPd-32" target="DFkXCgHexfb-b-sQ5JPd-34">
          <mxGeometry relative="1" as="geometry">
            <mxPoint x="385" y="680" as="targetPoint" />
          </mxGeometry>
        </mxCell>
        <mxCell id="DFkXCgHexfb-b-sQ5JPd-32" value="enter your choice of vaccine" style="rounded=1;whiteSpace=wrap;html=1;fontSize=18;" vertex="1" parent="WIyWlLk6GJQsqaUBKTNV-1">
          <mxGeometry x="250" y="585" width="270" height="55" as="geometry" />
        </mxCell>
        <mxCell id="DFkXCgHexfb-b-sQ5JPd-35" style="edgeStyle=orthogonalEdgeStyle;rounded=0;orthogonalLoop=1;jettySize=auto;html=1;fontSize=18;" edge="1" parent="WIyWlLk6GJQsqaUBKTNV-1" source="DFkXCgHexfb-b-sQ5JPd-34" target="DFkXCgHexfb-b-sQ5JPd-36">
          <mxGeometry relative="1" as="geometry">
            <mxPoint x="385" y="760" as="targetPoint" />
          </mxGeometry>
        </mxCell>
        <mxCell id="DFkXCgHexfb-b-sQ5JPd-34" value="enter your preferred vaccination centre" style="rounded=1;whiteSpace=wrap;html=1;fontSize=18;" vertex="1" parent="WIyWlLk6GJQsqaUBKTNV-1">
          <mxGeometry x="210" y="680" width="350" height="40" as="geometry" />
        </mxCell>
        <mxCell id="DFkXCgHexfb-b-sQ5JPd-37" style="edgeStyle=orthogonalEdgeStyle;rounded=0;orthogonalLoop=1;jettySize=auto;html=1;fontSize=18;" edge="1" parent="WIyWlLk6GJQsqaUBKTNV-1" source="DFkXCgHexfb-b-sQ5JPd-36" target="DFkXCgHexfb-b-sQ5JPd-38">
          <mxGeometry relative="1" as="geometry">
            <mxPoint x="385" y="850" as="targetPoint" />
          </mxGeometry>
        </mxCell>
        <mxCell id="DFkXCgHexfb-b-sQ5JPd-36" value="enter your preferred vaccination slot" style="rounded=1;whiteSpace=wrap;html=1;fontSize=18;" vertex="1" parent="WIyWlLk6GJQsqaUBKTNV-1">
          <mxGeometry x="200" y="760" width="370" height="50" as="geometry" />
        </mxCell>
        <mxCell id="DFkXCgHexfb-b-sQ5JPd-38" value="STOP" style="ellipse;whiteSpace=wrap;html=1;fontSize=18;" vertex="1" parent="WIyWlLk6GJQsqaUBKTNV-1">
          <mxGeometry x="325" y="850" width="120" height="60" as="geometry" />
        </mxCell>
      </root>
    </mxGraphModel>
  </diagram>
</mxfile>
